<?xml version="1.0" standalone="no"?>
<!DOCTYPE svg PUBLIC "-//W3C//DTD SVG 20010904//EN"
 "http://www.w3.org/TR/2001/REC-SVG-20010904/DTD/svg10.dtd">
<svg version="1.0" xmlns="http://www.w3.org/2000/svg"
 width="300.000000pt" height="300.000000pt" viewBox="0 0 300.000000 300.000000"
 preserveAspectRatio="xMidYMid meet">
<metadata>
Created by potrace 1.10, written by Peter Selinger 2001-2011
</metadata>
<g transform="translate(0.000000,300.000000) scale(0.100000,-0.100000)"
fill="#000000" stroke="none">
<path d="M1447 2984 c-3 -3 -45 -10 -94 -15 -129 -12 -164 -21 -177 -44 -6
-11 -17 -24 -23 -28 -19 -12 -16 -42 7 -62 11 -10 20 -24 20 -30 0 -7 17 -28
38 -47 21 -19 37 -39 35 -44 -7 -20 44 -99 61 -96 9 2 16 -1 16 -7 0 -11 -70
-71 -83 -71 -5 0 -21 -10 -35 -21 l-27 -21 45 7 c54 9 105 29 115 45 5 8 11 6
19 -6 12 -16 15 -16 37 -1 31 22 40 21 82 -7 34 -23 35 -24 40 -4 5 16 13 19
44 16 28 -2 38 -7 37 -19 -1 -13 8 -16 40 -16 22 1 44 5 47 9 3 5 26 2 52 -6
26 -8 47 -11 47 -8 -1 15 -29 44 -38 38 -5 -3 -24 -1 -43 4 -22 7 -35 7 -37 0
-7 -20 -19 -9 -32 29 -10 32 -10 47 4 93 20 68 71 146 110 168 38 20 47 43 14
36 -12 -3 -45 -10 -73 -15 -27 -6 -108 -13 -180 -15 -157 -6 -235 -15 -235
-28 0 -5 11 -26 25 -46 14 -20 25 -40 25 -45 0 -5 6 -15 13 -22 36 -41 41 -51
39 -73 -2 -12 2 -30 9 -38 15 -18 8 -27 -16 -18 -10 4 -29 32 -42 63 -27 61
-104 179 -134 207 -30 27 -24 51 16 64 51 17 288 28 403 19 131 -10 170 -18
182 -38 8 -14 11 -14 20 -1 14 22 14 22 -36 53 -40 26 -57 30 -172 38 -157 10
-157 10 -165 3z m-16 -205 c9 -18 20 -64 23 -101 6 -57 4 -68 -9 -68 -9 0 -15
9 -15 25 0 33 -27 135 -41 151 -12 15 -3 37 14 31 7 -1 19 -19 28 -38z m179
37 c0 -20 -16 -36 -36 -36 -26 0 -30 10 -12 28 11 11 48 17 48 8z m-58 -67 c2
-7 12 -7 29 0 23 8 28 6 40 -15 9 -17 10 -27 3 -32 -6 -4 -14 -19 -18 -34 -3
-16 -13 -28 -21 -28 -9 0 -12 -6 -9 -15 7 -17 -11 -21 -22 -4 -3 6 -17 9 -29
6 -17 -3 -25 1 -28 15 -3 10 -1 21 4 24 5 3 9 16 9 30 0 13 6 24 13 24 6 0 4
5 -5 11 -10 5 -18 14 -18 19 0 14 47 13 52 -1z"/>
<path d="M1335 2910 c-4 -6 -25 -10 -48 -11 -37 0 -39 -1 -18 -10 13 -5 87 -8
164 -7 109 2 141 6 145 17 3 9 0 11 -9 5 -17 -10 -174 -6 -205 6 -14 6 -26 6
-29 0z"/>
<path d="M1600 2890 c0 -5 17 -10 38 -10 27 0 33 3 22 10 -20 13 -60 13 -60 0z"/>
<path d="M1803 2845 c4 -8 2 -17 -4 -20 -5 -4 -7 -10 -4 -15 3 -5 1 -11 -5
-15 -5 -3 -10 -1 -10 6 0 21 -35 -18 -64 -71 -19 -34 -23 -50 -14 -50 8 0 7
-4 -4 -11 -10 -5 -15 -16 -11 -25 5 -13 8 -13 25 2 10 10 17 23 14 30 -2 6 1
17 7 23 6 6 8 11 4 11 -4 0 -3 9 3 20 6 11 15 20 20 20 6 0 28 17 50 37 37 35
38 39 23 55 -19 22 -37 24 -30 3z"/>
<path d="M1045 2427 c-97 -50 -134 -76 -196 -137 -42 -41 -86 -93 -97 -116
-11 -22 -28 -46 -36 -53 -9 -8 -16 -21 -16 -30 0 -9 -9 -41 -21 -71 -24 -64
-49 -233 -49 -340 0 -182 70 -408 191 -620 38 -67 69 -123 69 -126 0 -7 61
-97 70 -104 4 -3 19 -34 34 -70 15 -36 35 -80 44 -99 13 -27 16 -62 15 -175
-2 -151 7 -186 47 -186 22 0 26 10 10 26 -6 6 -13 82 -16 170 -5 154 -15 228
-33 238 -4 3 -27 43 -49 88 -23 46 -53 95 -67 110 -14 15 -25 30 -25 34 0 4
-17 34 -38 68 -90 144 -192 417 -192 517 -1 32 -7 62 -15 73 -19 25 -21 63 -2
48 9 -8 12 21 11 141 0 133 2 161 22 220 13 37 32 80 42 95 11 15 22 37 26 48
4 12 29 43 57 70 28 27 61 59 72 71 12 12 33 27 47 33 14 6 52 26 85 45 33 19
84 46 113 60 28 13 52 27 52 30 0 16 -48 -2 -155 -58z"/>
<path d="M1846 2444 c-7 -18 8 -26 55 -28 22 -1 43 -6 47 -12 4 -5 31 -25 59
-44 29 -19 53 -41 53 -47 0 -7 11 -13 25 -13 20 0 25 -5 25 -23 0 -16 9 -28
25 -35 13 -6 34 -31 46 -54 12 -24 39 -69 60 -100 21 -31 45 -76 53 -100 40
-120 49 -322 20 -453 -9 -44 -18 -95 -19 -113 -1 -19 -7 -37 -12 -40 -11 -8
-73 -150 -73 -168 0 -7 -4 -14 -9 -16 -5 -1 -23 -32 -41 -68 -18 -36 -40 -74
-49 -85 -31 -36 -79 -131 -87 -171 -6 -36 -27 -83 -57 -128 -9 -15 -9 -19 1
-23 17 -7 15 -30 -5 -51 -35 -36 -57 -86 -28 -62 9 7 18 10 22 6 4 -3 -1 -12
-10 -19 -16 -12 -20 -78 -13 -212 5 -83 5 -85 26 -85 27 0 25 -22 -5 -59 -29
-33 -74 -49 -255 -88 -97 -20 -137 -24 -252 -21 -76 1 -138 6 -138 10 0 5 -13
8 -28 8 -15 0 -33 5 -40 12 -9 9 -12 8 -12 -5 0 -9 -4 -17 -10 -17 -5 0 -10 7
-10 15 0 9 -9 15 -25 15 -14 0 -25 5 -25 10 0 6 -8 10 -17 10 -24 0 -101 84
-111 122 -8 33 -8 33 -21 10 -27 -51 27 -137 122 -190 60 -34 252 -82 328 -82
82 0 239 20 319 41 138 36 183 55 222 98 44 47 49 82 18 145 -25 52 -36 200
-21 278 13 74 55 179 97 244 284 448 366 868 233 1190 -39 93 -115 208 -176
265 -96 90 -291 175 -307 133z m-91 -2314 c10 -16 -45 -33 -61 -19 -10 8 -14
8 -14 0 0 -6 -5 -11 -11 -11 -25 0 1 26 32 31 19 4 37 7 41 8 4 0 10 -4 13 -9z
m-154 -30 c5 0 9 -5 9 -11 0 -15 -43 -7 -48 10 -3 10 0 12 12 8 10 -4 22 -7
27 -7z"/>
<path d="M1765 73 c-49 -13 -129 -26 -177 -30 -52 -3 -85 -10 -81 -16 13 -21
245 17 327 54 52 23 41 22 -69 -8z"/>
</g>
</svg>
